<?xml version="1.0" standalone="no"?>
<!DOCTYPE svg PUBLIC "-//W3C//DTD SVG 20010904//EN"
 "http://www.w3.org/TR/2001/REC-SVG-20010904/DTD/svg10.dtd">
<svg version="1.0" xmlns="http://www.w3.org/2000/svg"
 width="276.000000pt" height="303.000000pt" viewBox="0 0 276.000000 303.000000"
 preserveAspectRatio="xMidYMid meet">

<g transform="translate(0.000000,303.000000) scale(0.100000,-0.100000)"
fill="#000000" stroke="none">
<path d="M2160 2826 c-52 -19 -108 -41 -125 -50 -16 -9 -38 -16 -48 -16 -10 0
-33 -11 -50 -24 -18 -13 -61 -32 -97 -41 -35 -9 -76 -25 -91 -36 -15 -10 -42
-19 -61 -19 -19 0 -38 -4 -44 -9 -5 -4 -31 -16 -59 -26 -27 -10 -63 -28 -80
-40 -44 -31 -170 -105 -179 -105 -11 0 -96 -59 -139 -97 -63 -56 -90 -46 -165
64 -22 33 -53 68 -68 78 -15 10 -38 30 -52 44 -22 24 -30 26 -93 24 -38 -2
-84 -9 -103 -17 -58 -24 -235 -167 -236 -190 0 -4 -15 -29 -34 -55 -18 -25
-55 -86 -80 -135 -26 -49 -53 -99 -61 -110 -7 -12 -18 -39 -25 -61 -7 -22 -21
-53 -31 -70 -11 -16 -19 -45 -19 -63 0 -18 -11 -59 -25 -92 -23 -55 -25 -74
-30 -257 -4 -190 5 -372 24 -478 5 -27 14 -84 20 -125 7 -41 22 -124 36 -185
13 -60 26 -132 29 -159 3 -27 17 -80 31 -118 14 -38 25 -80 25 -94 0 -34 21
-39 95 -20 36 9 165 23 286 31 122 9 225 18 230 20 4 3 68 12 141 20 73 8 169
26 213 39 44 13 102 29 130 35 27 7 63 18 80 26 48 23 116 45 137 45 10 0 40
10 66 21 106 49 129 60 161 79 19 10 55 22 80 25 25 4 80 22 121 42 81 39 214
97 270 117 20 8 51 23 70 35 19 11 42 21 51 21 8 0 26 11 39 25 13 14 48 34
79 46 70 26 91 44 91 81 0 53 -16 70 -59 63 -58 -10 -87 19 -93 92 -6 60 -19
96 -64 171 -40 66 -73 54 -137 -52 -64 -104 -143 -94 -162 22 -4 23 -10 42
-15 42 -12 0 -71 -50 -120 -103 -54 -57 -91 -67 -138 -37 -78 48 -65 101 51
200 128 110 129 156 5 127 -91 -21 -103 -21 -155 2 -57 27 -79 62 -63 101 9
23 21 31 49 36 20 3 59 12 86 18 l50 13 1 54 c1 72 2 75 20 93 12 13 31 15
103 9 134 -9 134 -9 131 140 -2 67 -2 129 -1 138 1 19 42 39 80 39 15 0 51 7
79 15 52 16 52 16 52 57 0 23 -13 78 -29 122 -51 147 -71 211 -71 233 0 13 12
51 26 86 24 58 25 67 13 93 -8 16 -23 30 -34 31 -11 2 -63 -12 -115 -31z
m-203 -232 c-3 -3 -12 -4 -19 -1 -8 3 -5 6 6 6 11 1 17 -2 13 -5z m273 -78 c0
-8 7 -16 15 -20 8 -3 15 -13 15 -23 0 -10 10 -46 21 -80 20 -57 21 -63 6 -78
-9 -8 -30 -17 -47 -18 -16 -1 -30 -5 -30 -9 0 -5 -16 -8 -35 -8 -19 0 -35 -4
-35 -8 0 -5 -11 -15 -25 -22 -26 -14 -48 -61 -38 -85 3 -9 0 -21 -6 -29 -6 -7
-8 -16 -4 -20 9 -9 15 -85 9 -112 -5 -19 -11 -21 -52 -18 -25 2 -53 9 -61 15
-11 10 -16 10 -23 0 -9 -16 -50 -5 -50 12 0 7 9 23 20 37 11 14 20 30 20 36 0
6 15 24 33 40 18 16 34 32 35 37 9 41 73 129 89 123 8 -4 13 3 13 19 0 13 5
27 11 30 5 4 14 17 20 28 5 12 13 29 18 37 5 8 21 41 35 73 25 54 46 74 46 43z
m-1559 -507 c7 -71 16 -88 48 -96 14 -3 29 -11 33 -17 5 -7 8 -6 8 4 0 15 42
40 67 40 22 0 14 -35 -13 -61 -35 -32 -88 -33 -105 -1 -7 12 -23 25 -35 28
-28 7 -32 19 -33 102 -1 80 21 81 30 1z m186 -26 c-4 -17 -4 -17 -12 0 -4 9
-4 25 0 35 8 16 8 16 12 0 3 -10 3 -26 0 -35z m980 -131 l6 -52 -32 0 c-18 0
-31 5 -31 13 -1 8 -5 7 -13 -4 -16 -21 -65 -31 -63 -13 3 22 48 64 68 64 11 0
16 5 13 11 -8 13 27 50 38 40 4 -4 10 -31 14 -59z m-192 -178 c1 -19 -4 -23
-22 -22 -15 2 -22 8 -20 18 2 8 9 14 15 13 7 -2 11 0 11 5 -3 16 1 25 9 18 4
-4 7 -18 7 -32z m765 -384 c0 -11 -1 -21 -1 -22 -1 -2 12 -28 28 -58 l30 -55
-73 -2 c-65 -3 -75 0 -84 17 -9 16 -8 22 5 26 8 3 13 10 10 14 -3 4 11 25 30
46 19 21 35 42 35 46 0 4 5 8 10 8 6 0 10 -9 10 -20z m-290 -27 c0 -10 2 -36
3 -57 2 -43 5 -42 -75 -37 -32 1 -38 21 -7 21 11 0 17 4 14 10 -8 12 25 61 36
54 5 -3 9 2 9 10 0 22 19 20 20 -1z m-315 -57 c-11 -8 -25 -11 -33 -8 -11 4
-11 6 0 13 7 5 22 9 32 9 19 0 19 0 1 -14z"/>
</g>
</svg>
